# xmcd
#
# Track frame offsets: 
#        150
#        14265
#        28756
#        53085
#        68648
#        89732
#        110504
#        128026
#        142979
#        159992
#        176889
#        188563
#
# Disc length: 2814 seconds
#
# Revision: 0
# Processed by: cddbd v1.5.2PL0 Copyright (c) Steve Scherf et al.
# Submitted via: ExactAudioCopy v0.95b4
#
DISCID=9d0afc0c
DTITLE=Pete Kartsounes - Out of Nowhere
DYEAR=2007
DGENRE=Folk
TTITLE0=Old Bluegrass Home
TTITLE1=Immigrant's Life
TTITLE2=While the Band Plays On
TTITLE3=Out of Nowhere
TTITLE4=Takes Me Home
TTITLE5=Habits Like You
TTITLE6=Just a Part of Life
TTITLE7=Sweet Carolina
TTITLE8=Time to Say Goodbye
TTITLE9=Good Time Spent
TTITLE10=Blue and Lonely
TTITLE11=River Oh River
EXTD=
EXTT0=
EXTT1=
EXTT2=
EXTT3=
EXTT4=
EXTT5=
EXTT6=
EXTT7=
EXTT8=
EXTT9=
EXTT10=
EXTT11=
PLAYORDER=
